<svg width="170" height="48" viewBox="0 0 170 48" fill="none" xmlns="http://www.w3.org/2000/svg">
<g clip-path="url(#clip0_1_60702)">
<path d="M48.0039 24C48.0039 45.4377 45.6813 48 24.0899 48C2.49853 48 0.00390625 45.2669 0.00390625 24C0.00390625 2.7331 3.27272 0 24.0899 0C44.9071 0 48.0039 2.56228 48.0039 24Z" fill="url(#paint0_linear_1_60702)"/>
<path d="M7.54297 46.2464L32.6933 19.1992L47.649 34.155C46.4604 46.3048 41.6419 47.998 24.0899 47.998C16.4041 47.998 11.138 47.6517 7.54297 46.2464Z" fill="#0A191F" fill-opacity="0.05"/>
<g clip-path="url(#clip1_1_60702)">
<path d="M1.16406 38.7194L13.1424 21.4277L30.1764 33.2264L19.9487 47.9908C8.01602 47.7036 3.10522 45.9079 1.16406 38.7194Z" fill="#0A191F"/>
<path fill-rule="evenodd" clip-rule="evenodd" d="M32.5923 33.9189C34.4029 32.2092 35.7547 29.9375 35.329 27.9844C35.2074 27.143 34.7317 26.4494 33.7482 25.6412C33.8856 24.6267 35.0302 22.6364 33.7095 20.4014C33.5725 20.1679 33.423 19.9612 33.2645 19.778C32.7045 19.0116 31.8448 18.4287 30.8831 18.2193C29.8907 18.0039 29.2573 18.1704 28.5731 18.2372C28.3919 17.5714 28.331 16.9207 27.7783 16.0663C27.2749 15.2872 26.4894 14.7087 25.6336 14.4369C25.352 14.3147 25.0388 14.2195 24.6931 14.1598C22.1166 13.7045 20.6434 15.4906 19.7352 15.9799C18.0735 15.0185 17.0546 15.0404 15.674 15.8709C14.3428 16.6707 13.2077 18.1654 12.5472 19.7355C7.91399 30.3182 23.1251 42.8588 32.5938 33.9208" fill="#0A191F"/>
<path fill-rule="evenodd" clip-rule="evenodd" d="M25.6088 27.0199C27.7553 29.0487 26.8848 31.2716 25.5187 32.0321C23.9196 32.9226 21.8678 32.0194 19.9407 30.6768C17.9857 29.3147 16.4191 27.8526 16.5416 25.9655C16.6129 24.8692 17.5887 23.9169 18.4858 23.6246C19.4615 23.3058 20.0681 23.4217 21.2694 24.0102C23.7081 22.0502 26.6253 23.7624 25.607 27.0214" fill="white"/>
<path fill-rule="evenodd" clip-rule="evenodd" d="M25.4846 17.058C27.2298 19.4495 23.8364 22.9277 22.2266 20.6619C21.6463 19.8469 21.7858 18.3865 22.538 17.4088C23.261 16.4703 24.6753 15.9481 25.4864 17.0581" fill="white"/>
<path fill-rule="evenodd" clip-rule="evenodd" d="M31.6484 21.283C33.2294 23.2445 29.6343 26.621 27.7709 24.5478C27.0569 23.7547 27.5244 22.2311 28.5556 21.3858C29.3188 20.7596 30.8483 20.292 31.6484 21.283Z" fill="white"/>
<path fill-rule="evenodd" clip-rule="evenodd" d="M33.22 28.7711C34.4378 30.8224 30.3442 32.7068 29.1477 30.7545C27.9819 28.8515 31.9488 26.6304 33.22 28.7711Z" fill="white"/>
<path fill-rule="evenodd" clip-rule="evenodd" d="M18.3103 18.4573C19.9238 20.8258 17.2091 23.6708 15.7003 21.4012C14.2268 19.1883 16.7389 16.1478 18.3103 18.4573Z" fill="white"/>
</g>
</g>
<path d="M71.852 11.5977H63.2956C62.8335 11.5977 62.4583 11.9746 62.4583 12.435V35.5715C62.4583 36.0337 62.8352 36.4089 63.2956 36.4089H67.2916C67.7537 36.4089 68.1289 36.032 68.1289 35.5715V29.4488C68.1289 28.9867 68.5058 28.6115 68.9663 28.6115H71.8503C76.7416 28.6115 80.5345 24.8185 80.5345 20.1046C80.5345 15.3906 76.7416 11.5977 71.8503 11.5977H71.852ZM71.852 23.2955H68.968C68.5059 23.2955 68.1306 22.9186 68.1306 22.4581V17.7527C68.1306 17.2922 68.5076 16.9153 68.968 16.9153H71.852C73.5882 16.9153 74.8656 18.2985 74.8656 20.1063C74.8656 21.9141 73.5899 23.2972 71.852 23.2972" fill="white"/>
<path d="M95.0886 19.4118V20.2407C93.9187 18.8933 92.1825 18.0781 89.8068 18.0781C85.1628 18.0781 81.3357 22.1542 81.3357 27.4361C81.3357 32.7179 85.1645 36.794 89.8068 36.794C92.1808 36.794 93.9187 35.9788 95.0886 34.6314V35.4603C95.0886 35.9225 95.4655 36.2977 95.926 36.2977H99.5672C100.029 36.2977 100.405 35.9208 100.405 35.4603V19.4135C100.405 18.9513 100.028 18.5761 99.5672 18.5761H95.926C95.4638 18.5761 95.0886 18.953 95.0886 19.4135V19.4118ZM90.871 31.7594C88.4253 31.7594 86.6534 30.0932 86.6534 27.4361C86.6534 24.7789 88.4253 23.111 90.871 23.111C93.3166 23.111 95.0886 24.7772 95.0886 27.4361C95.0886 30.0949 93.3166 31.7594 90.871 31.7594Z" fill="white"/>
<path d="M123.633 19.195L122.025 25.1829C121.926 25.5513 121.605 25.7986 121.225 25.8037C120.843 25.8071 120.519 25.5667 120.412 25.2L118.658 19.178C118.553 18.8147 118.232 18.5742 117.853 18.5742H114.147C113.769 18.5742 113.45 18.8147 113.342 19.178L111.591 25.2C111.485 25.5649 111.159 25.8071 110.777 25.8037C110.395 25.8003 110.075 25.5513 109.977 25.1829L108.369 19.195C108.269 18.8249 107.945 18.5742 107.561 18.5742H103.679C103.403 18.5742 103.166 18.6953 103.002 18.917C102.838 19.1404 102.797 19.4031 102.881 19.6657L108.016 35.7125C108.129 36.0655 108.444 36.2958 108.814 36.2958H112.542C112.918 36.2958 113.237 36.0587 113.346 35.6989L115.2 29.5114C115.307 29.1516 115.626 28.9145 116.001 28.9145C116.376 28.9145 116.695 29.1516 116.804 29.5114L118.658 35.6989C118.766 36.0587 119.085 36.2958 119.462 36.2958H123.188C123.558 36.2958 123.872 36.0655 123.986 35.7125L129.121 19.6657C129.205 19.4031 129.162 19.1404 129 18.917C128.837 18.6936 128.6 18.5742 128.323 18.5742H124.442C124.056 18.5742 123.732 18.8232 123.633 19.195Z" fill="white"/>
<path d="M148.445 34.9779L143.371 27.7757C143.163 27.4807 143.163 27.1055 143.371 26.8104L148.237 19.893C148.421 19.6304 148.443 19.3098 148.295 19.0249C148.146 18.7401 147.872 18.573 147.551 18.573H143.502C143.221 18.573 142.979 18.6992 142.817 18.9294L140.67 21.9908C140.508 22.221 140.265 22.3472 139.984 22.3472C139.703 22.3472 139.461 22.221 139.298 21.9908L137.151 18.9294C136.989 18.6992 136.747 18.573 136.466 18.573H132.417C132.096 18.573 131.822 18.7401 131.673 19.0249C131.525 19.3098 131.547 19.6304 131.731 19.893L136.595 26.8104C136.802 27.1055 136.802 27.4807 136.595 27.7757L131.522 34.9779C131.337 35.2406 131.315 35.5612 131.462 35.846C131.61 36.1308 131.885 36.298 132.205 36.298H136.253C136.534 36.298 136.776 36.1718 136.936 35.9432L139.297 32.592C139.459 32.3617 139.701 32.2372 139.982 32.2372C140.264 32.2372 140.506 32.3617 140.668 32.592L143.028 35.9432C143.19 36.1735 143.433 36.298 143.714 36.298H147.761C148.082 36.298 148.356 36.1308 148.505 35.846C148.651 35.5612 148.631 35.2406 148.445 34.9779Z" fill="white"/>
<path d="M163.674 19.1665L161.259 27.0287C161.152 27.3801 160.845 27.6103 160.478 27.6205C160.112 27.6308 159.794 27.4142 159.67 27.0697L156.789 19.1273C156.667 18.7896 156.361 18.5747 156.001 18.5747H151.997C151.709 18.5747 151.46 18.7077 151.299 18.9482C151.139 19.1887 151.112 19.4684 151.224 19.7344L157.664 35.1724C157.753 35.3838 157.753 35.5987 157.666 35.8119C156.977 37.502 155.979 38.2456 154.132 38.394C153.696 38.4298 153.361 38.7914 153.361 39.2297V42.5656C153.361 42.7975 153.445 42.9971 153.61 43.1608C153.774 43.3245 153.975 43.4047 154.207 43.403C158.686 43.3638 161.592 41.0733 163.465 35.7642L169.132 19.6884C169.226 19.424 169.188 19.1546 169.026 18.926C168.864 18.6975 168.624 18.573 168.342 18.573H164.472C164.099 18.573 163.782 18.8067 163.673 19.1648" fill="white"/>
<defs>
<linearGradient id="paint0_linear_1_60702" x1="24.0039" y1="0" x2="24.0039" y2="48" gradientUnits="userSpaceOnUse">
<stop stop-color="#00EAFF"/>
<stop offset="1" stop-color="#00C0FF"/>
</linearGradient>
<clipPath id="clip0_1_60702">
<rect width="48" height="48" fill="white"/>
</clipPath>
<clipPath id="clip1_1_60702">
<rect width="35.6571" height="34.1143" fill="white" transform="translate(0 13.8848)"/>
</clipPath>
</defs>
</svg>
